<svg xmlns="http://www.w3.org/2000/svg" viewBox="0 0 512 512">
  <defs>
    <linearGradient id="bg" x1="0" y1="0" x2="1" y2="1">
      <stop offset="0%" stop-color="#0891b2"/>
      <stop offset="100%" stop-color="#083344"/>
    </linearGradient>
  </defs>
  <rect width="512" height="512" rx="96" fill="url(#bg)"/>
  <g fill="none" stroke="#ecfeff" stroke-width="22" stroke-linecap="round" stroke-linejoin="round">
    <!-- Araç gövdesi -->
    <path d="M120 320 l40 -110 a40 40 0 0 1 38 -28 h116 a40 40 0 0 1 38 28 l40 110"/>
    <path d="M104 320 h304 v60 a16 16 0 0 1 -16 16 h-32 a16 16 0 0 1 -16 -16 v-20 h-176 v20 a16 16 0 0 1 -16 16 h-32 a16 16 0 0 1 -16 -16 z"/>
    <!-- Tekerlekler -->
    <circle cx="170" cy="346" r="14" fill="#ecfeff" stroke="none"/>
    <circle cx="342" cy="346" r="14" fill="#ecfeff" stroke="none"/>
    <!-- Köpük baloncukları -->
    <circle cx="148" cy="170" r="14"/>
    <circle cx="184" cy="138" r="10"/>
    <circle cx="364" cy="172" r="14"/>
    <circle cx="332" cy="138" r="10"/>
  </g>
</svg>
